{
    "asset" : {
        "generator" : "Khronos glTF Blender I/O v3.2.43",
        "version" : "2.0"
    },
    "scene" : 0,
    "scenes" : [
        {
            "name" : "Scene",
            "nodes" : [
                0,
                1,
                2,
                3,
                4
            ]
        }
    ],
    "nodes" : [
        {
            "name" : "\u7a7a\u7269\u4f53.001",
            "rotation" : [
                0.5,
                0.5,
                -0.5,
                0.5
            ],
            "translation" : [
                -2.649745225906372,
                3.190277099609375,
                -5.095539093017578
            ]
        },
        {
            "name" : "\u7a7a\u7269\u4f53.003",
            "rotation" : [
                0,
                0.7071068286895752,
                0,
                0.7071068286895752
            ],
            "scale" : [
                1.289674162864685,
                1.289674162864685,
                1.289674162864685
            ],
            "translation" : [
                9.297325134277344,
                -4.038731098175049,
                -5.134749412536621
            ]
        },
        {
            "name" : "\u7a7a\u7269\u4f53.004",
            "rotation" : [
                0.7071068286895752,
                0,
                0,
                0.7071067094802856
            ],
            "scale" : [
                0.5805081725120544,
                0.5805081725120544,
                0.5805081725120544
            ],
            "translation" : [
                0,
                -0.3528320789337158,
                -8.408123970031738
            ]
        },
        {
            "name" : "\u7a7a\u7269\u4f53.005",
            "rotation" : [
                0.7071068286895752,
                0,
                0,
                0.7071067094802856
            ],
            "scale" : [
                0.5805081725120544,
                0.5805081725120544,
                0.5805081725120544
            ],
            "translation" : [
                3.510314702987671,
                1.4171996116638184,
                -8.408123970031738
            ]
        },
        {
            "mesh" : 0,
            "name" : "\u5e73\u9762.003",
            "scale" : [
                0.952214241027832,
                0.952214241027832,
                0.952214241027832
            ],
            "translation" : [
                0,
                0.4033326506614685,
                0.9341076016426086
            ]
        }
    ],
    "materials" : [
        {
            "doubleSided" : true,
            "name" : "\u6750\u8d28",
            "pbrMetallicRoughness" : {
                "baseColorFactor" : [0.3411764705882353, 0.5333333333333333, 0.21568627450980393, 1],
                "metallicFactor" : 0,
                "roughnessFactor" : 0.5
            }
        }
    ],
    "meshes" : [
        {
            "name" : "\u5e73\u9762",
            "primitives" : [
                {
                    "attributes" : {
                        "POSITION" : 0,
                        "NORMAL" : 1,
                        "TEXCOORD_0" : 2
                    },
                    "indices" : 3,
                    "material" : 0
                }
            ]
        }
    ],
    "accessors" : [
        {
            "bufferView" : 0,
            "componentType" : 5126,
            "count" : 12408,
            "max" : [
                1.3326387405395508,
                1.5447824001312256,
                2.3664391040802
            ],
            "min" : [
                -1.3326387405395508,
                -0.41951292753219604,
                -4.1501970291137695
            ],
            "type" : "VEC3"
        },
        {
            "bufferView" : 1,
            "componentType" : 5126,
            "count" : 12408,
            "type" : "VEC3"
        },
        {
            "bufferView" : 2,
            "componentType" : 5126,
            "count" : 12408,
            "type" : "VEC2"
        },
        {
            "bufferView" : 3,
            "componentType" : 5123,
            "count" : 72120,
            "type" : "SCALAR"
        }
    ],
    "bufferViews" : [
        {
            "buffer" : 0,
            "byteLength" : 148896,
            "byteOffset" : 0
        },
        {
            "buffer" : 0,
            "byteLength" : 148896,
            "byteOffset" : 148896
        },
        {
            "buffer" : 0,
            "byteLength" : 99264,
            "byteOffset" : 297792
        },
        {
            "buffer" : 0,
            "byteLength" : 144240,
            "byteOffset" : 397056
        }
    ],
    "buffers" : [
        {
            "byteLength" : 541296,
            "uri" : "data:application/octet-stream;base64,"
        }
    ]
}
