{
    "asset" : {
        "generator" : "Khronos glTF Blender I/O v3.2.43",
        "version" : "2.0"
    },
    "scene" : 0,
    "scenes" : [
        {
            "name" : "Scene",
            "nodes" : [
                0
            ]
        }
    ],
    "nodes" : [
        {
            "mesh" : 0,
            "name" : "Roundcube.003",
            "scale" : [
                0.10918870568275452,
                0.10918870568275452,
                0.10918870568275452
            ],
            "translation" : [
                0,
                -0.012202151119709015,
                0
            ]
        }
    ],
    "materials" : [
        {
            "doubleSided" : true,
            "name" : "\u6750\u8d28",
            "pbrMetallicRoughness" : {
                "baseColorFactor" : [0.011764705882352941, 0.24313725490196078, 0.5254901960784314, 1],
                "metallicFactor" : 0,
                "roughnessFactor" : 0.5
            }
        }
    ],
    "meshes" : [
        {
            "name" : "Roundcube.003",
            "primitives" : [
                {
                    "attributes" : {
                        "POSITION" : 0,
                        "NORMAL" : 1
                    },
                    "indices" : 2,
                    "material" : 0
                }
            ]
        }
    ],
    "accessors" : [
        {
            "bufferView" : 0,
            "componentType" : 5126,
            "count" : 12986,
            "max" : [
                2.6069424152374268,
                16.23029136657715,
                0.9008163809776306
            ],
            "min" : [
                -2.6069424152374268,
                0.08408340811729431,
                -1.4775842428207397
            ],
            "type" : "VEC3"
        },
        {
            "bufferView" : 1,
            "componentType" : 5126,
            "count" : 12986,
            "type" : "VEC3"
        },
        {
            "bufferView" : 2,
            "componentType" : 5123,
            "count" : 77904,
            "type" : "SCALAR"
        }
    ],
    "bufferViews" : [
        {
            "buffer" : 0,
            "byteLength" : 155832,
            "byteOffset" : 0
        },
        {
            "buffer" : 0,
            "byteLength" : 155832,
            "byteOffset" : 155832
        },
        {
            "buffer" : 0,
            "byteLength" : 155808,
            "byteOffset" : 311664
        }
    ],
    "buffers" : [
        {
            "byteLength" : 467472,
            "uri" : "data:application/octet-stream;base64,"
        }
    ]
}
